<svg
  width="16"
  height="16"
  viewBox="0 0 16 16"
  fill="none"
  xmlns="http://www.w3.org/2000/svg"
>
<path
    fill-rule="evenodd"
    clip-rule="evenodd"
    d="M4.94644 2.60015C3.62095 2.60015 2.54644 3.67466 2.54644 5.00015V11.0001C2.54644 12.3256 3.62095 13.4001 4.94644 13.4001H10.9464C12.2719 13.4001 13.3464 12.3256 13.3464 11.0001V5.00015C13.3464 3.67466 12.2719 2.60015 10.9464 2.60015H4.94644ZM1.34644 5.00015C1.34644 3.01192 2.95821 1.40015 4.94644 1.40015H10.9464C12.9347 1.40015 14.5464 3.01192 14.5464 5.00015V11.0001C14.5464 12.9884 12.9347 14.6001 10.9464 14.6001H4.94644C2.95821 14.6001 1.34644 12.9884 1.34644 11.0001V5.00015Z"
    fill="#07272B"
  />
<path
    fill-rule="evenodd"
    clip-rule="evenodd"
    d="M8.23638 6.19359C7.86187 6.13806 7.47939 6.20203 7.14333 6.3764C6.80727 6.55078 6.53475 6.82668 6.36453 7.16486C6.19431 7.50305 6.13507 7.88629 6.19521 8.26009C6.25536 8.63389 6.43185 8.9792 6.69956 9.24692C6.96728 9.51463 7.31259 9.69111 7.68639 9.75126C8.06019 9.81141 8.44343 9.75216 8.78162 9.58195C9.1198 9.41173 9.3957 9.13921 9.57008 8.80315C9.74445 8.46709 9.80842 8.0846 9.75288 7.71009C9.69624 7.32808 9.51823 6.97441 9.24515 6.70133C8.97207 6.42825 8.6184 6.25024 8.23638 6.19359ZM6.59064 5.31125C7.15074 5.02063 7.78822 4.91402 8.41241 5.00657C9.0491 5.10099 9.63854 5.39767 10.0937 5.8528C10.5488 6.30794 10.8455 6.89738 10.9399 7.53407C11.0325 8.15826 10.9258 8.79574 10.6352 9.35583C10.3446 9.91593 9.88476 10.3701 9.32112 10.6538C8.75748 10.9375 8.11874 11.0363 7.49574 10.936C6.87275 10.8358 6.29723 10.5416 5.85103 10.0954C5.40484 9.64925 5.1107 9.07373 5.01046 8.45073C4.91021 7.82774 5.00895 7.18899 5.29265 6.62535C5.57635 6.06171 6.03054 5.60188 6.59064 5.31125Z"
    fill="#07272B"
  />
<path
    fill-rule="evenodd"
    clip-rule="evenodd"
    d="M10.6464 4.7001C10.6464 4.36873 10.9151 4.1001 11.2464 4.1001H11.2524C11.5838 4.1001 11.8524 4.36873 11.8524 4.7001C11.8524 5.03147 11.5838 5.3001 11.2524 5.3001H11.2464C10.9151 5.3001 10.6464 5.03147 10.6464 4.7001Z"
    fill="07272B#"
  />
</svg>
