<svg width="16" height="16" viewBox="0 0 16 16" fill="none" xmlns="http://www.w3.org/2000/svg">
<path fill-rule="evenodd" clip-rule="evenodd" d="M7.20082 2.45456C7.87595 1.77943 8.79163 1.40015 9.74641 1.40015H11.5464C11.8778 1.40015 12.1464 1.66878 12.1464 2.00015V4.40015C12.1464 4.73152 11.8778 5.00015 11.5464 5.00015H9.74641V6.20015H11.5464C11.7312 6.20015 11.9056 6.28527 12.0193 6.4309C12.133 6.57653 12.1733 6.76642 12.1285 6.94567L11.5285 9.34567C11.4617 9.61277 11.2217 9.80015 10.9464 9.80015H9.74641V14.0001C9.74641 14.3315 9.47778 14.6001 9.14641 14.6001H6.74641C6.41503 14.6001 6.14641 14.3315 6.14641 14.0001V9.80015H4.94641C4.61503 9.80015 4.34641 9.53152 4.34641 9.20015V6.80015C4.34641 6.46878 4.61503 6.20015 4.94641 6.20015H6.14641V5.00015C6.14641 4.04537 6.52569 3.12969 7.20082 2.45456ZM9.74641 2.60015C9.10989 2.60015 8.49944 2.853 8.04935 3.30309C7.59926 3.75318 7.34641 4.36363 7.34641 5.00015V6.80015C7.34641 7.13152 7.07778 7.40015 6.74641 7.40015H5.54641V8.60015H6.74641C7.07778 8.60015 7.34641 8.86878 7.34641 9.20015V13.4001H8.54641V9.20015C8.54641 8.86878 8.81503 8.60015 9.14641 8.60015H10.4779L10.7779 7.40015H9.14641C8.81503 7.40015 8.54641 7.13152 8.54641 6.80015V5.00015C8.54641 4.68189 8.67283 4.37666 8.89788 4.15162C9.12292 3.92658 9.42814 3.80015 9.74641 3.80015H10.9464V2.60015H9.74641Z" fill="#07272B"/>
</svg>
