<svg width="16" height="16" viewBox="0 0 16 16" fill="none" xmlns="http://www.w3.org/2000/svg">
<g clip-path="url(#clip0_1100_320)">
<path d="M5.70242 13.976C4.14242 13.976 2.54642 13.562 1.05242 12.734C0.806415 12.602 0.692415 12.314 0.764415 12.05C0.836415 11.78 1.07642 11.606 1.36442 11.612C2.37842 11.648 3.38042 11.456 4.29242 11.03C2.06642 9.64999 1.49042 7.70599 1.42442 6.23599C1.34042 4.46599 1.97042 3.02599 2.00042 2.96599C2.08442 2.76799 2.27642 2.62999 2.48642 2.61199C2.69642 2.58799 2.91242 2.68999 3.03842 2.86399C3.58442 3.64399 4.32242 4.27999 5.17442 4.71199C5.85242 5.05399 6.59042 5.25799 7.34642 5.31199C7.34042 4.64599 7.53842 3.99799 7.91642 3.44599C8.29442 2.88799 8.82842 2.46199 9.46442 2.22199C10.0944 1.98199 10.7784 1.93999 11.4324 2.10199C11.9544 2.23399 12.4284 2.48599 12.8244 2.83999C13.3104 2.65999 13.7724 2.41999 14.1984 2.11999C14.4024 1.97599 14.6724 1.97599 14.8824 2.11399C15.0924 2.25199 15.1884 2.50999 15.1284 2.74999C14.9244 3.59599 14.5104 4.36999 13.9284 5.01199C13.9404 5.11399 13.9464 5.20999 13.9464 5.30599C13.9464 8.59399 12.4884 11.336 9.95042 12.83C8.65442 13.598 7.19642 13.976 5.70242 13.976ZM3.72242 12.518C5.67242 13.022 7.67042 12.782 9.34442 11.798C11.5044 10.526 12.7464 8.16199 12.7464 5.30599C12.7464 5.18599 12.7344 5.05399 12.7104 4.91599C12.6744 4.71799 12.7344 4.51999 12.8784 4.38199C13.0104 4.24999 13.1364 4.11199 13.2504 3.96199C13.1124 4.00999 12.9744 4.05799 12.8364 4.09999C12.6144 4.16599 12.3684 4.09999 12.2124 3.91999C11.9304 3.59599 11.5584 3.36799 11.1444 3.26599C10.7244 3.16399 10.2924 3.18799 9.89042 3.33799C9.48842 3.49399 9.14642 3.75799 8.90642 4.11799C8.66642 4.47199 8.54042 4.89199 8.54642 5.31799V5.92399C8.54642 6.24799 8.28842 6.51799 7.96442 6.52399C6.82442 6.55999 5.66042 6.29599 4.63442 5.77999C3.95042 5.43199 3.32042 4.97599 2.78642 4.42999C2.42642 5.95999 2.28242 8.89999 5.79242 10.46C5.99042 10.55 6.12842 10.736 6.14642 10.952C6.16442 11.168 6.06842 11.378 5.88842 11.504C5.21042 11.96 4.48442 12.302 3.72242 12.518Z" fill="#07272B"/>
</g>
<defs>
<clipPath id="clip0_1100_320">
<rect width="14.4" height="14.4" fill="white" transform="translate(0.746399 0.800049)"/>
</clipPath>
</defs>
</svg>
